{
    "asset" : {
        "generator" : "Khronos glTF Blender I/O v1.7.33",
        "version" : "2.0"
    },
    "scene" : 0,
    "scenes" : [
        {
            "name" : "Scene",
            "nodes" : [
                0,
                1,
                2
            ]
        }
    ],
    "nodes" : [
        {
            "mesh" : 0,
            "name" : "text1",
            "rotation" : [
                -0.6984031200408936,
                0,
                0,
                -0.7157046794891357
            ],
            "translation" : [
                -0.6993659734725952,
                1.5787410736083984,
                0
            ]
        },
        {
            "mesh" : 1,
            "name" : "heart",
            "rotation" : [
                0.7071068286895752,
                0,
                0,
                0.7071067094802856
            ]
        },
        {
            "mesh" : 2,
            "name" : "text2",
            "rotation" : [
                -0.6984031200408936,
                0,
                0,
                -0.7157046794891357
            ],
            "translation" : [
                -1.7430554628372192,
                0.9300406575202942,
                0
            ]
        }
    ],
    "materials" : [
        {
            "doubleSided" : true,
            "name" : "red",
            "pbrMetallicRoughness" : {
                "baseColorFactor" : [
                    0.8000000715255737,
                    0.004930698312819004,
                    0.006198760122060776,
                    1
                ],
                "metallicFactor" : 0,
                "roughnessFactor" : 0.5
            }
        }
    ],
    "meshes" : [
        {
            "name" : "\u0422\u0435\u043a\u0441\u0442",
            "primitives" : [
                {
                    "attributes" : {
                        "POSITION" : 0,
                        "NORMAL" : 1,
                        "TEXCOORD_0" : 2
                    },
                    "indices" : 3
                }
            ]
        },
        {
            "name" : "Sphere_Sphere.004",
            "primitives" : [
                {
                    "attributes" : {
                        "POSITION" : 4,
                        "NORMAL" : 5
                    },
                    "indices" : 6,
                    "material" : 0
                }
            ]
        },
        {
            "name" : "\u0422\u0435\u043a\u0441\u0442.001",
            "primitives" : [
                {
                    "attributes" : {
                        "POSITION" : 7,
                        "NORMAL" : 8,
                        "TEXCOORD_0" : 9
                    },
                    "indices" : 10
                }
            ]
        }
    ],
    "accessors" : [
        {
            "bufferView" : 0,
            "componentType" : 5126,
            "count" : 11078,
            "max" : [
                1.4014084339141846,
                0.04999999701976776,
                0.053438276052474976
            ],
            "min" : [
                0.12717480957508087,
                -0.04999999701976776,
                -0.6014913320541382
            ],
            "type" : "VEC3"
        },
        {
            "bufferView" : 1,
            "componentType" : 5126,
            "count" : 11078,
            "type" : "VEC3"
        },
        {
            "bufferView" : 2,
            "componentType" : 5126,
            "count" : 11078,
            "type" : "VEC2"
        },
        {
            "bufferView" : 3,
            "componentType" : 5123,
            "count" : 19836,
            "type" : "SCALAR"
        },
        {
            "bufferView" : 4,
            "componentType" : 5126,
            "count" : 1742,
            "max" : [
                0.9999989867210388,
                0.39850500226020813,
                1.2590160369873047
            ],
            "min" : [
                -1,
                -0.3985069990158081,
                -0.677901029586792
            ],
            "type" : "VEC3"
        },
        {
            "bufferView" : 5,
            "componentType" : 5126,
            "count" : 1742,
            "type" : "VEC3"
        },
        {
            "bufferView" : 6,
            "componentType" : 5123,
            "count" : 10440,
            "type" : "SCALAR"
        },
        {
            "bufferView" : 7,
            "componentType" : 5126,
            "count" : 40523,
            "max" : [
                3.3533811569213867,
                0.04999999701976776,
                0.16145816445350647
            ],
            "min" : [
                -0.0028831816744059324,
                -0.04999999701976776,
                -0.34886500239372253
            ],
            "type" : "VEC3"
        },
        {
            "bufferView" : 8,
            "componentType" : 5126,
            "count" : 40523,
            "type" : "VEC3"
        },
        {
            "bufferView" : 9,
            "componentType" : 5126,
            "count" : 40523,
            "type" : "VEC2"
        },
        {
            "bufferView" : 10,
            "componentType" : 5123,
            "count" : 72288,
            "type" : "SCALAR"
        }
    ],
    "bufferViews" : [
        {
            "buffer" : 0,
            "byteLength" : 132936,
            "byteOffset" : 0
        },
        {
            "buffer" : 0,
            "byteLength" : 132936,
            "byteOffset" : 132936
        },
        {
            "buffer" : 0,
            "byteLength" : 88624,
            "byteOffset" : 265872
        },
        {
            "buffer" : 0,
            "byteLength" : 39672,
            "byteOffset" : 354496
        },
        {
            "buffer" : 0,
            "byteLength" : 20904,
            "byteOffset" : 394168
        },
        {
            "buffer" : 0,
            "byteLength" : 20904,
            "byteOffset" : 415072
        },
        {
            "buffer" : 0,
            "byteLength" : 20880,
            "byteOffset" : 435976
        },
        {
            "buffer" : 0,
            "byteLength" : 486276,
            "byteOffset" : 456856
        },
        {
            "buffer" : 0,
            "byteLength" : 486276,
            "byteOffset" : 943132
        },
        {
            "buffer" : 0,
            "byteLength" : 324184,
            "byteOffset" : 1429408
        },
        {
            "buffer" : 0,
            "byteLength" : 144576,
            "byteOffset" : 1753592
        }
    ],
    "buffers" : [
        {
            "byteLength" : 1898168,
            "uri" : "data:application/octet-stream;base64,"
        }
    ]
}
