{
    "asset" : {
        "generator" : "Khronos glTF Blender I/O v1.7.33",
        "version" : "2.0"
    },
    "scene" : 0,
    "scenes" : [
        {
            "name" : "Scene",
            "nodes" : [
                0,
                1,
                2,
                3
            ]
        }
    ],
    "nodes" : [
        {
            "mesh" : 0,
            "name" : "Text.002_CUText.002",
            "rotation" : [
                0.7071068286895752,
                0,
                0,
                0.7071067094802856
            ]
        },
        {
            "mesh" : 1,
            "name" : "Text.001_CUText.001",
            "rotation" : [
                0.7071068286895752,
                0,
                0,
                0.7071067094802856
            ]
        },
        {
            "mesh" : 2,
            "name" : "Text_CUText",
            "rotation" : [
                0.7071068286895752,
                0,
                0,
                0.7071067094802856
            ]
        },
        {
            "mesh" : 3,
            "name" : "Sphere_Sphere.004",
            "rotation" : [
                0.7071068286895752,
                0,
                0,
                0.7071067094802856
            ]
        }
    ],
    "materials" : [
        {
            "doubleSided" : true,
            "name" : "red",
            "pbrMetallicRoughness" : {
                "baseColorFactor" : [
                    0.8000000715255737,
                    0.004930698312819004,
                    0.006198760122060776,
                    1
                ],
                "metallicFactor" : 0,
                "roughnessFactor" : 0.5
            }
        }
    ],
    "meshes" : [
        {
            "name" : "Text.002_CUText.002",
            "primitives" : [
                {
                    "attributes" : {
                        "POSITION" : 0,
                        "NORMAL" : 1
                    },
                    "indices" : 2,
                    "material" : 0
                }
            ]
        },
        {
            "name" : "Text.001_CUText.001",
            "primitives" : [
                {
                    "attributes" : {
                        "POSITION" : 3,
                        "NORMAL" : 4
                    },
                    "indices" : 5,
                    "material" : 0
                }
            ]
        },
        {
            "name" : "Text_CUText",
            "primitives" : [
                {
                    "attributes" : {
                        "POSITION" : 6,
                        "NORMAL" : 7
                    },
                    "indices" : 8,
                    "material" : 0
                }
            ]
        },
        {
            "name" : "Sphere_Sphere.004",
            "primitives" : [
                {
                    "attributes" : {
                        "POSITION" : 9,
                        "NORMAL" : 10
                    },
                    "indices" : 11,
                    "material" : 0
                }
            ]
        }
    ],
    "accessors" : [
        {
            "bufferView" : 0,
            "componentType" : 5126,
            "count" : 7259,
            "max" : [
                -0.5805889964103699,
                0.06300000101327896,
                -0.7312930226325989
            ],
            "min" : [
                -1.2547990083694458,
                -0.06300000101327896,
                -1.266556978225708
            ],
            "type" : "VEC3"
        },
        {
            "bufferView" : 1,
            "componentType" : 5126,
            "count" : 7259,
            "type" : "VEC3"
        },
        {
            "bufferView" : 2,
            "componentType" : 5123,
            "count" : 32496,
            "type" : "SCALAR"
        },
        {
            "bufferView" : 3,
            "componentType" : 5126,
            "count" : 17503,
            "max" : [
                1.4244600534439087,
                0.06300000101327896,
                -0.7488679885864258
            ],
            "min" : [
                0.40005600452423096,
                -0.06300000101327896,
                -1.2333660125732422
            ],
            "type" : "VEC3"
        },
        {
            "bufferView" : 4,
            "componentType" : 5126,
            "count" : 17503,
            "type" : "VEC3"
        },
        {
            "bufferView" : 5,
            "componentType" : 5123,
            "count" : 78858,
            "type" : "SCALAR"
        },
        {
            "bufferView" : 6,
            "componentType" : 5126,
            "count" : 20957,
            "max" : [
                0.3136720061302185,
                0.06300000101327896,
                -0.7486029863357544
            ],
            "min" : [
                -0.7056509852409363,
                -0.06300000101327896,
                -1.22734797000885
            ],
            "type" : "VEC3"
        },
        {
            "bufferView" : 7,
            "componentType" : 5126,
            "count" : 20957,
            "type" : "VEC3"
        },
        {
            "bufferView" : 8,
            "componentType" : 5123,
            "count" : 94278,
            "type" : "SCALAR"
        },
        {
            "bufferView" : 9,
            "componentType" : 5126,
            "count" : 1742,
            "max" : [
                0.9999989867210388,
                0.39850500226020813,
                1.2590160369873047
            ],
            "min" : [
                -1,
                -0.3985069990158081,
                -0.677901029586792
            ],
            "type" : "VEC3"
        },
        {
            "bufferView" : 10,
            "componentType" : 5126,
            "count" : 1742,
            "type" : "VEC3"
        },
        {
            "bufferView" : 11,
            "componentType" : 5123,
            "count" : 10440,
            "type" : "SCALAR"
        }
    ],
    "bufferViews" : [
        {
            "buffer" : 0,
            "byteLength" : 87108,
            "byteOffset" : 0
        },
        {
            "buffer" : 0,
            "byteLength" : 87108,
            "byteOffset" : 87108
        },
        {
            "buffer" : 0,
            "byteLength" : 64992,
            "byteOffset" : 174216
        },
        {
            "buffer" : 0,
            "byteLength" : 210036,
            "byteOffset" : 239208
        },
        {
            "buffer" : 0,
            "byteLength" : 210036,
            "byteOffset" : 449244
        },
        {
            "buffer" : 0,
            "byteLength" : 157716,
            "byteOffset" : 659280
        },
        {
            "buffer" : 0,
            "byteLength" : 251484,
            "byteOffset" : 816996
        },
        {
            "buffer" : 0,
            "byteLength" : 251484,
            "byteOffset" : 1068480
        },
        {
            "buffer" : 0,
            "byteLength" : 188556,
            "byteOffset" : 1319964
        },
        {
            "buffer" : 0,
            "byteLength" : 20904,
            "byteOffset" : 1508520
        },
        {
            "buffer" : 0,
            "byteLength" : 20904,
            "byteOffset" : 1529424
        },
        {
            "buffer" : 0,
            "byteLength" : 20880,
            "byteOffset" : 1550328
        }
    ],
    "buffers" : [
        {
            "byteLength" : 1571208,
            "uri" : "data:application/octet-stream;base64,"
        }
    ]
}
